<svg xmlns="http://www.w3.org/2000/svg" width="20" height="20" viewBox="0 0 20 20">
    <g fill="none" fill-rule="evenodd" stroke="#9B9B9B" stroke-linecap="round">
        <path d="M15.486 10.421v6.478H5.345v-6.478"/>
        <path d="M11.107 16.617h-1.38a1 1 0 0 1-1-1v-1.38a1 1 0 0 1 1-1h1.38a1 1 0 0 1 1 1v1.38a1 1 0 0 1-1 1zM3.5 8.26l1.73-3.672c0-.123.128-.081.288-.081h9.797c.16 0 .29-.042.29.08l1.727 3.743M6.958 8.548a1.729 1.729 0 1 0 3.458 0M13.874 8.548a1.729 1.729 0 1 0 3.458 0M10.416 8.548a1.729 1.729 0 1 0 3.458 0M3.5 8.548a1.729 1.729 0 1 0 3.458 0"/>
    </g>
</svg>
