<svg xmlns="http://www.w3.org/2000/svg" xmlns:xlink="http://www.w3.org/1999/xlink" width="64" height="65" viewBox="0 0 64 65">
    <defs>
        <path id="a" d="M.231.412h59.587V60H.231z"/>
        <path id="c" d="M0 .197h61.755v61.756H0z"/>
    </defs>
    <g fill="none" fill-rule="evenodd">
        <g transform="translate(4 5)">
            <mask id="b" fill="#fff">
                <use xlink:href="#a"/>
            </mask>
            <path fill="#1C8482" d="M59.818 30.207C59.818 46.66 46.48 60 30.025 60S.23 46.661.23 30.207C.231 13.752 13.571.412 30.025.412c16.455 0 29.793 13.34 29.793 29.795" mask="url(#b)"/>
        </g>
        <path fill="#D8E5E4" d="M61 32c0 16.568-13.43 30-30 30C14.432 62 1 48.568 1 32 1 15.43 14.432 2 31 2c16.57 0 30 13.431 30 30"/>
        <mask id="d" fill="#fff">
            <use xlink:href="#c"/>
        </mask>
        <path fill="#60B8B5" d="M30.878 2.345c-15.842 0-28.73 12.888-28.73 28.73s12.888 28.73 28.73 28.73 28.73-12.888 28.73-28.73-12.888-28.73-28.73-28.73m0 59.608C13.853 61.953 0 48.101 0 31.075S13.853.197 30.878.197c17.026 0 30.877 13.852 30.877 30.878S47.904 61.953 30.878 61.953" mask="url(#d)"/>
        <path stroke="#1C8482" stroke-width="2" d="M31.5 30a5.5 5.5 0 1 0 0-11.001A5.5 5.5 0 0 0 31.5 30zM42 36.024v2.923c0 .282-.104 1.053-.41 1.053H21.673c-.299 0-.672-.773-.672-1.053v-3.164C21 32.589 25.7 30 31.5 30c5.799 0 10.5 2.589 10.5 5.783v.241z"/>
    </g>
</svg>
